<?xml version="1.0" encoding="utf-8"?>
<!-- Generator: Adobe Illustrator 18.1.1, SVG Export Plug-In . SVG Version: 6.00 Build 0)  -->
<svg version="1.1" xmlns="http://www.w3.org/2000/svg" xmlns:xlink="http://www.w3.org/1999/xlink" x="0px" y="0px"
	 viewBox="0 0 512 412" enable-background="new 0 0 512 412" xml:space="preserve">
<g id="_x31_p-2k-2c-1k" display="none">
	<g display="inline">
		<g>
			<g>
				<circle fill="#1E5A3C" cx="256" cy="345.8" r="20.5"/>
				<path fill="#1E5A3C" d="M275.4,364.6c-4.9,5.1-11.8,8.2-19.4,8.2s-14.5-3.2-19.4-8.2c-8,5.9-13.1,15.4-13.1,26.1
					c0,18,14.6,19.3,32.5,19.3c18,0,32.5-1.3,32.5-19.3C288.5,380,283.3,370.6,275.4,364.6z"/>
			</g>
			<g>
				<path fill="#D7C674" d="M223.5,357.5c0-9.4-7.6-17-17-17c-9.4,0-17,7.6-17,17c0,6.3,3.4,11.8,8.5,14.8v9.3h3.8v8.1l-3.4,3.3
					l3.4,1.9v0.6l-3.4,3.3l3,1.7l-3,3l3.8,2.2c1.1,2.1,4.2,4.4,4.2,4.4s4.7-3.5,4.7-5.7v-30.4C218.2,371.8,223.5,365.3,223.5,357.5z
					 M211.5,350.7c0,2.8-2.3,5.1-5.1,5.1c-2.8,0-5.1-2.3-5.1-5.1c0-2.8,2.3-5.1,5.1-5.1C209.2,345.6,211.5,347.9,211.5,350.7z"/>
			</g>
			<g>
				<path fill="#D7C674" d="M300.9,373.9v30.4c0,2.2,4.7,5.7,4.7,5.7s3.1-2.3,4.2-4.4l3.8-2.2l-3-3l3-1.7l-3.4-3.3v-0.6l3.4-1.9
					l-3.4-3.3v-8.1h3.8v-9.3c5.1-2.9,8.5-8.5,8.5-14.8c0-9.4-7.6-17-17-17c-9.4,0-17,7.6-17,17C288.5,365.3,293.8,371.8,300.9,373.9
					z M305.6,345.6c2.8,0,5.1,2.3,5.1,5.1c0,2.8-2.3,5.1-5.1,5.1c-2.8,0-5.1-2.3-5.1-5.1C300.5,347.9,302.8,345.6,305.6,345.6z"/>
			</g>
		</g>
	</g>
	<g display="inline">
		<g>
			<path fill="#BCBCBC" d="M123.9,325.3h-21.5c-3,0-12-1.2-5.5-5.5s6.5-4.3,6.5-4.3l3.3-41.2c0-3,2.5-5.5,5.5-5.5h1.9
				c3,0,5.5,2.5,5.5,5.5l3.3,41.2c0,0,0,0.1,6.5,4.3C135.9,324,126.9,325.3,123.9,325.3z"/>
			<path fill="#BCBCBC" d="M168.4,303.5H57.8c-3.6,0-6.5-2.9-6.5-6.5v-65.1c0-3.6,2.9-6.5,6.5-6.5h110.6c3.6,0,6.5,2.9,6.5,6.5V297
				C174.9,300.6,172,303.5,168.4,303.5z"/>
			<rect x="61.1" y="235.2" width="104.1" height="58.6"/>
		</g>
		<g>
			<path fill="#BCBCBC" d="M409.6,325.3h-21.5c-3,0-12-1.2-5.5-5.5s6.5-4.3,6.5-4.3l3.3-41.2c0-3,2.5-5.5,5.5-5.5h1.9
				c3,0,5.5,2.5,5.5,5.5l3.3,41.2c0,0,0,0.1,6.5,4.3C421.6,324,412.6,325.3,409.6,325.3z"/>
			<path fill="#BCBCBC" d="M454.2,303.5H343.6c-3.6,0-6.5-2.9-6.5-6.5v-65.1c0-3.6,2.9-6.5,6.5-6.5h110.6c3.6,0,6.5,2.9,6.5,6.5V297
				C460.7,300.6,457.7,303.5,454.2,303.5z"/>
			<rect x="346.8" y="235.2" width="104.1" height="58.6"/>
		</g>
		<g>
			<path fill="#D7C674" d="M130.9,283.3c9.4,0,17-7.6,17-17c0-9.4-7.6-17-17-17c-6.3,0-11.8,3.4-14.8,8.5h-9.3v3.8h-8.1l-3.3-3.4
				l-1.9,3.4h-0.6l-3.3-3.4l-1.7,3l-3-3l-2.2,3.8c-2.1,1.1-4.4,4.2-4.4,4.2s3.5,4.7,5.7,4.7h30.4C116.5,278,123.1,283.3,130.9,283.3
				z M137.6,271.3c-2.8,0-5.1-2.3-5.1-5.1c0-2.8,2.3-5.1,5.1-5.1c2.8,0,5.1,2.3,5.1,5.1C142.7,269,140.5,271.3,137.6,271.3z"/>
		</g>
		<g>
			<path fill="#D7C674" d="M397.5,270.9H428c2.2,0,5.7-4.7,5.7-4.7s-2.3-3.1-4.4-4.2l-2.2-3.8l-3,3l-1.7-3l-3.3,3.4h-0.6l-1.9-3.4
				l-3.3,3.4h-8.1v-3.8h-9.3c-2.9-5.1-8.5-8.5-14.8-8.5c-9.4,0-17,7.6-17,17c0,9.4,7.6,17,17,17C388.9,283.3,395.5,278,397.5,270.9z
				 M369.3,266.2c0-2.8,2.3-5.1,5.1-5.1c2.8,0,5.1,2.3,5.1,5.1c0,2.8-2.3,5.1-5.1,5.1C371.5,271.3,369.3,269,369.3,266.2z"/>
		</g>
	</g>
	<g id="Dotted_Lines" display="inline">
		
			<line fill="none" stroke="#999999" stroke-width="4" stroke-miterlimit="10" stroke-dasharray="12.299,12.299" x1="113.1" y1="144" x2="113.1" y2="222.1"/>
		
			<line fill="none" stroke="#999999" stroke-width="4" stroke-miterlimit="10" stroke-dasharray="12.299,12.299" x1="398.9" y1="144" x2="398.9" y2="222.1"/>
		
			<line fill="none" stroke="#999999" stroke-width="4" stroke-miterlimit="10" stroke-dasharray="12.299,12.299" x1="206.4" y1="143.6" x2="206.4" y2="339.7"/>
		
			<line fill="none" stroke="#999999" stroke-width="4" stroke-miterlimit="10" stroke-dasharray="12.299,12.299" x1="305.6" y1="143.6" x2="305.6" y2="339.7"/>
		
			<line fill="none" stroke="#999999" stroke-width="4" stroke-miterlimit="10" stroke-dasharray="12.299,12.299" x1="113.4" y1="135" x2="399.5" y2="135"/>
	</g>
</g>
<g id="_x32_p-2k" display="none">
	<g display="inline">
		<g>
			<g>
				<circle fill="#1E5A3C" cx="354.1" cy="261.6" r="20.5"/>
				<path fill="#1E5A3C" d="M373.5,280.5c-4.9,5.1-11.8,8.2-19.4,8.2c-7.6,0-14.5-3.2-19.4-8.2c-8,5.9-13.1,15.4-13.1,26.1
					c0,18,14.6,19.3,32.5,19.3c18,0,32.5-1.3,32.5-19.3C386.7,295.9,381.5,286.4,373.5,280.5z"/>
			</g>
			<g>
				<path fill="#D7C674" d="M321.6,273.3c0-9.4-7.6-17-17-17s-17,7.6-17,17c0,6.3,3.4,11.8,8.5,14.8v9.3h3.8v8.1l-3.4,3.3l3.4,1.9
					v0.6l-3.4,3.3l3,1.7l-3,3l3.8,2.2c1.1,2.1,4.2,4.4,4.2,4.4s4.7-3.5,4.7-5.7v-30.4C316.4,287.7,321.6,281.1,321.6,273.3z
					 M309.7,266.6c0,2.8-2.3,5.1-5.1,5.1s-5.1-2.3-5.1-5.1c0-2.8,2.3-5.1,5.1-5.1S309.7,263.7,309.7,266.6z"/>
			</g>
			<g>
				<path fill="#D7C674" d="M399,289.7v30.4c0,2.2,4.7,5.7,4.7,5.7s3.1-2.3,4.2-4.4l3.8-2.2l-3-3l3-1.7l-3.4-3.3v-0.6l3.4-1.9
					l-3.4-3.3v-8.1h3.8v-9.3c5.1-2.9,8.5-8.5,8.5-14.8c0-9.4-7.6-17-17-17c-9.4,0-17,7.6-17,17C386.7,281.1,391.9,287.7,399,289.7z
					 M403.7,261.5c2.8,0,5.1,2.3,5.1,5.1c0,2.8-2.3,5.1-5.1,5.1c-2.8,0-5.1-2.3-5.1-5.1C398.6,263.7,400.9,261.5,403.7,261.5z"/>
			</g>
		</g>
		<g>
			<g>
				<circle fill="#1E5A3C" cx="155.9" cy="261.6" r="20.5"/>
				<path fill="#1E5A3C" d="M175.2,280.5c-4.9,5.1-11.8,8.2-19.4,8.2c-7.6,0-14.5-3.2-19.4-8.2c-8,5.9-13.1,15.4-13.1,26.1
					c0,18,14.6,19.3,32.5,19.3c18,0,32.5-1.3,32.5-19.3C188.4,295.9,183.2,286.4,175.2,280.5z"/>
			</g>
			<g>
				<path fill="#D7C674" d="M123.3,273.3c0-9.4-7.6-17-17-17c-9.4,0-17,7.6-17,17c0,6.3,3.4,11.8,8.5,14.8v9.3h3.8v8.1l-3.4,3.3
					l3.4,1.9v0.6l-3.4,3.3l3,1.7l-3,3l3.8,2.2c1.1,2.1,4.2,4.4,4.2,4.4s4.7-3.5,4.7-5.7v-30.4C118.1,287.7,123.3,281.1,123.3,273.3z
					 M111.4,266.6c0,2.8-2.3,5.1-5.1,5.1c-2.8,0-5.1-2.3-5.1-5.1c0-2.8,2.3-5.1,5.1-5.1C109.1,261.5,111.4,263.7,111.4,266.6z"/>
			</g>
			<g>
				<path fill="#D7C674" d="M200.8,289.7v30.4c0,2.2,4.7,5.7,4.7,5.7s3.1-2.3,4.2-4.4l3.8-2.2l-3-3l3-1.7l-3.4-3.3v-0.6l3.4-1.9
					l-3.4-3.3v-8.1h3.8v-9.3c5.1-2.9,8.5-8.5,8.5-14.8c0-9.4-7.6-17-17-17c-9.4,0-17,7.6-17,17C188.4,281.1,193.6,287.7,200.8,289.7
					z M205.4,261.5c2.8,0,5.1,2.3,5.1,5.1c0,2.8-2.3,5.1-5.1,5.1c-2.8,0-5.1-2.3-5.1-5.1C200.3,263.7,202.6,261.5,205.4,261.5z"/>
			</g>
		</g>
	</g>
	<g id="Dotted_Lines_copy" display="inline">
		
			<line fill="none" stroke="#999999" stroke-width="4" stroke-miterlimit="10" stroke-dasharray="12.299,12.299" x1="106.3" y1="144" x2="106.3" y2="253.1"/>
		
			<line fill="none" stroke="#999999" stroke-width="4" stroke-miterlimit="10" stroke-dasharray="12.299,12.299" x1="403.7" y1="144" x2="403.7" y2="253.1"/>
		
			<line fill="none" stroke="#999999" stroke-width="4" stroke-miterlimit="10" stroke-dasharray="12.299,12.299" x1="206.4" y1="143.6" x2="206.4" y2="259.7"/>
		
			<line fill="none" stroke="#999999" stroke-width="4" stroke-miterlimit="10" stroke-dasharray="12.299,12.299" x1="305.6" y1="143.6" x2="305.6" y2="259.7"/>
		
			<line fill="none" stroke="#999999" stroke-width="4" stroke-miterlimit="10" stroke-dasharray="12.299,12.299" x1="104.4" y1="135" x2="406.5" y2="135"/>
	</g>
</g>
<g id="Layer_3">
	<g>
		<g>
			<g>
				<circle fill="#1E5A3C" cx="256" cy="179.6" r="20.5"/>
				<path fill="#1E5A3C" d="M275.4,198.4c-4.9,5.1-11.8,8.2-19.4,8.2s-14.5-3.2-19.4-8.2c-8,5.9-13.1,15.4-13.1,26.1
					c0,18,14.6,19.3,32.5,19.3c18,0,32.5-1.3,32.5-19.3C288.5,213.8,283.3,204.3,275.4,198.4z"/>
			</g>
		</g>
		<g>
			<g>
				<g>
					<path fill="#D7C674" d="M150.1,219.6v32.5c0,2.4,5,6.1,5,6.1s3.3-2.5,4.5-4.7l4.1-2.3l-3.2-3.2l3.2-1.8l-3.6-3.6V242l3.6-2
						l-3.6-3.6v-8.6h4.1v-9.9c5.4-3.1,9.1-9,9.1-15.8c0-10-8.1-18.2-18.2-18.2c-10,0-18.2,8.1-18.2,18.2
						C136.8,210.5,142.4,217.5,150.1,219.6z M155,189.5c3,0,5.4,2.4,5.4,5.4c0,3-2.4,5.4-5.4,5.4c-3,0-5.4-2.4-5.4-5.4
						C149.6,192,152,189.5,155,189.5z"/>
				</g>
			</g>
			<g>
				<g>
					<path fill="#D7C674" d="M352,219.6v32.5c0,2.4,5,6.1,5,6.1s3.3-2.5,4.5-4.7l4.1-2.3l-3.2-3.2l3.2-1.8l-3.6-3.6V242l3.6-2
						l-3.6-3.6v-8.6h4.1v-9.9c5.4-3.1,9.1-9,9.1-15.8c0-10-8.1-18.2-18.2-18.2c-10,0-18.2,8.1-18.2,18.2
						C338.8,210.5,344.4,217.5,352,219.6z M357,189.5c3,0,5.4,2.4,5.4,5.4c0,3-2.4,5.4-5.4,5.4c-3,0-5.4-2.4-5.4-5.4
						C351.5,192,354,189.5,357,189.5z"/>
				</g>
			</g>
		</g>
		<g>
			<g>
				<g>
					<path fill="#D7C674" d="M206.9,293.4v32.5c0,2.4,5,6.1,5,6.1s3.3-2.5,4.5-4.7l4.1-2.3l-3.2-3.2l3.2-1.8l-3.6-3.6v-0.6l3.6-2
						l-3.6-3.6v-8.6h4.1v-9.9c5.4-3.1,9.1-9,9.1-15.8c0-10-8.1-18.2-18.2-18.2c-10,0-18.2,8.1-18.2,18.2
						C193.7,284.2,199.3,291.2,206.9,293.4z M211.9,263.3c3,0,5.4,2.4,5.4,5.4c0,3-2.4,5.4-5.4,5.4c-3,0-5.4-2.4-5.4-5.4
						C206.5,265.7,208.9,263.3,211.9,263.3z"/>
				</g>
			</g>
			<g>
				<g>
					<path fill="#D7C674" d="M295.1,293.4v32.5c0,2.4,5,6.1,5,6.1s3.3-2.5,4.5-4.7l4.1-2.3l-3.2-3.2l3.2-1.8l-3.6-3.6v-0.6l3.6-2
						l-3.6-3.6v-8.6h4.1v-9.9c5.4-3.1,9.1-9,9.1-15.8c0-10-8.1-18.2-18.2-18.2c-10,0-18.2,8.1-18.2,18.2
						C281.9,284.2,287.5,291.2,295.1,293.4z M300.1,263.3c3,0,5.4,2.4,5.4,5.4c0,3-2.4,5.4-5.4,5.4c-3,0-5.4-2.4-5.4-5.4
						C294.7,265.7,297.1,263.3,300.1,263.3z"/>
				</g>
			</g>
		</g>
	</g>
	<g id="Dotted_Lines_copy_2">
		
			<line fill="none" stroke="#999999" stroke-width="4" stroke-miterlimit="10" stroke-dasharray="12.299,12.299" x1="155" y1="144" x2="155" y2="182.1"/>
		
			<line fill="none" stroke="#999999" stroke-width="4" stroke-miterlimit="10" stroke-dasharray="12.299,12.299" x1="357" y1="144" x2="357" y2="182.1"/>
		
			<line fill="none" stroke="#999999" stroke-width="4" stroke-miterlimit="10" stroke-dasharray="12.299,12.299" x1="206.4" y1="143.6" x2="206.4" y2="259.7"/>
		
			<line fill="none" stroke="#999999" stroke-width="4" stroke-miterlimit="10" stroke-dasharray="12.299,12.299" x1="305.6" y1="143.6" x2="305.6" y2="259.7"/>
		
			<line fill="none" stroke="#999999" stroke-width="4" stroke-miterlimit="10" stroke-dasharray="12.299,12.299" x1="154.4" y1="135" x2="359.5" y2="135"/>
	</g>
</g>
<g id="Layer_4">
</g>
<g id="Top_Line">
	
		<line fill="none" stroke="#999999" stroke-width="4" stroke-miterlimit="10" stroke-dasharray="12.299,12.299" x1="256" y1="68" x2="256" y2="140.1"/>
</g>
</svg>
