<?xml version="1.0" encoding="utf-8"?>
<!-- Generator: Adobe Illustrator 18.1.1, SVG Export Plug-In . SVG Version: 6.00 Build 0)  -->
<svg version="1.1" id="Layer_1" xmlns="http://www.w3.org/2000/svg" xmlns:xlink="http://www.w3.org/1999/xlink" x="0px" y="0px"
	 viewBox="0 0 512 412" enable-background="new 0 0 512 412" xml:space="preserve">
<g id="_x31_p-1k-b-1k">
	<g>
		<path fill="#D7C674" d="M205.4,222v32.5c0,2.4,5,6.1,5,6.1s3.3-2.5,4.5-4.7l4.1-2.3l-3.2-3.2l3.2-1.8l-3.6-3.6v-0.6l3.6-2
			l-3.6-3.6v-8.6h4.1v-9.9c5.4-3.1,9.1-9,9.1-15.8c0-10-8.1-18.2-18.2-18.2c-10,0-18.2,8.1-18.2,18.2
			C192.2,212.8,197.8,219.9,205.4,222z M210.4,191.9c3,0,5.4,2.4,5.4,5.4s-2.4,5.4-5.4,5.4s-5.4-2.4-5.4-5.4
			C205,194.3,207.4,191.9,210.4,191.9z"/>
		<path fill="#D7C674" d="M293.6,222v32.5c0,2.4,5,6.1,5,6.1s3.3-2.5,4.5-4.7l4.1-2.3l-3.2-3.2l3.2-1.8l-3.6-3.6v-0.6l3.6-2
			l-3.6-3.6v-8.6h4.1v-9.9c5.4-3.1,9.1-9,9.1-15.8c0-10-8.1-18.2-18.2-18.2c-10,0-18.2,8.1-18.2,18.2
			C280.4,212.8,286,219.9,293.6,222z M298.6,191.9c3,0,5.4,2.4,5.4,5.4s-2.4,5.4-5.4,5.4s-5.4-2.4-5.4-5.4
			C293.2,194.3,295.6,191.9,298.6,191.9z"/>
	</g>
	<g>
		<g>
			<circle fill="#1E5A3C" cx="210.4" cy="290.3" r="20.5"/>
			<path fill="#1E5A3C" d="M229.8,309.1c-4.9,5.1-11.8,8.2-19.4,8.2c-7.6,0-14.5-3.2-19.4-8.2c-8,5.9-13.1,15.4-13.1,26.1
				c0,18,14.6,19.3,32.5,19.3c18,0,32.5-1.3,32.5-19.3C242.9,324.5,237.7,315.1,229.8,309.1z"/>
		</g>
	</g>
	<g id="Dotted_Lines_copy_4">
		
			<line fill="none" stroke="#999999" stroke-width="4" stroke-miterlimit="10" stroke-dasharray="12.299,12.299" x1="210.4" y1="143.6" x2="210.4" y2="185.7"/>
		
			<line fill="none" stroke="#999999" stroke-width="4" stroke-miterlimit="10" stroke-dasharray="12.299,12.299" x1="298.6" y1="143.6" x2="298.6" y2="185.7"/>
		
			<line fill="none" stroke="#999999" stroke-width="4" stroke-miterlimit="10" stroke-dasharray="12.299,12.299" x1="211.4" y1="135" x2="301.5" y2="135"/>
		<g>
			<polygon fill="#04365B" points="309.8,277.2 265.1,277.2 265.1,344.4 332.2,344.4 332.2,299.6 309.8,299.6 			"/>
			<rect x="321" y="277.2" fill="#04365B" width="11.2" height="11.2"/>
		</g>
	</g>
</g>
<g id="Top_Line">
	
		<line fill="none" stroke="#999999" stroke-width="4" stroke-miterlimit="10" stroke-dasharray="12.299,12.299" x1="256" y1="68" x2="256" y2="140.1"/>
</g>
</svg>
