<?xml version="1.0" encoding="utf-8"?>
<!-- Generator: Adobe Illustrator 18.1.1, SVG Export Plug-In . SVG Version: 6.00 Build 0)  -->
<svg version="1.1" id="Layer_1" xmlns="http://www.w3.org/2000/svg" xmlns:xlink="http://www.w3.org/1999/xlink" x="0px" y="0px"
	 viewBox="0 0 343 125" enable-background="new 0 0 343 125" xml:space="preserve">
<g>
	<g>
		<g>
			<g>
				<path fill="#DB7324" d="M71.7,11.9c-18.8-13.5-45-9.2-58.5,9.6C-0.3,40.3,4,66.5,22.8,80s45,9.2,58.5-9.6
					C94.8,51.6,90.5,25.4,71.7,11.9z M68.5,16.4c16.3,11.7,20,34.5,8.3,50.8s-34.5,20-50.8,8.3S6,41,17.7,24.7S52.2,4.7,68.5,16.4z"
					/>
			</g>
		</g>
		<g>
			<circle fill="#F5912F" cx="47.2" cy="45.9" r="36.4"/>
		</g>
	</g>
	<g>
		<path fill="#FFFFFF" d="M58.1,44.2c4.2,1,6.8,3.5,6.3,9.1c-0.7,7-5.8,8.8-13.2,9.2v7.3h-4.4v-7.2c-1.1,0-2.3,0-3.5,0v7.2h-4.4
			v-7.3c-1,0-2.1,0-3.1,0H30l0.9-5.2c3.2,0.1,3.2,0,3.2,0c1.2,0,1.6-0.9,1.7-1.5V44.2c0.1,0,0.3,0,0.5,0c-0.2,0-0.3,0-0.5,0V36
			C35.6,35,35,34,33.2,34c0,0,0.1-0.1-3.2,0v-4.7l6.1,0c0.9,0,1.8,0,2.8,0v-7.2h4.4v7.1c1.2,0,2.3-0.1,3.5-0.1v-7h4.4v7.2
			c5.7,0.5,10.2,2.2,10.7,7.5C62.2,40.6,60.6,42.9,58.1,44.2z M43.4,34.3v8.8c2.5,0,10.3,0.6,10.3-4.4
			C53.7,33.6,45.9,34.3,43.4,34.3z M43.4,47.5v9.7c3,0,12.3,0.6,12.3-4.8C55.7,46.7,46.4,47.5,43.4,47.5z"/>
	</g>
</g>
<g>
	<g>
		<g>
			<g>
				<path fill="#DB7324" d="M71.7,27.9c-18.8-13.5-45-9.2-58.5,9.6C-0.3,56.3,4,82.5,22.8,96s45,9.2,58.5-9.6
					C94.8,67.6,90.5,41.4,71.7,27.9z M68.5,32.4c16.3,11.7,20,34.5,8.3,50.8s-34.5,20-50.8,8.3S6,57,17.7,40.7S52.2,20.7,68.5,32.4z
					"/>
			</g>
		</g>
		<g>
			<circle fill="#F5912F" cx="47.2" cy="61.9" r="36.4"/>
		</g>
	</g>
	<g>
		<path fill="#FFFFFF" d="M58.1,60.2c4.2,1,6.8,3.5,6.3,9.1c-0.7,7-5.8,8.8-13.2,9.2v7.3h-4.4v-7.2c-1.1,0-2.3,0-3.5,0v7.2h-4.4
			v-7.3c-1,0-2.1,0-3.1,0H30l0.9-5.2c3.2,0.1,3.2,0,3.2,0c1.2,0,1.6-0.9,1.7-1.5V60.2c0.1,0,0.3,0,0.5,0c-0.2,0-0.3,0-0.5,0V52
			C35.6,51,35,50,33.2,50c0,0,0.1-0.1-3.2,0v-4.7l6.1,0c0.9,0,1.8,0,2.8,0v-7.2h4.4v7.1c1.2,0,2.3-0.1,3.5-0.1v-7h4.4v7.2
			c5.7,0.5,10.2,2.2,10.7,7.5C62.2,56.6,60.6,58.9,58.1,60.2z M43.4,50.3v8.8c2.5,0,10.3,0.6,10.3-4.4
			C53.7,49.6,45.9,50.3,43.4,50.3z M43.4,63.5v9.7c3,0,12.3,0.6,12.3-4.8C55.7,62.7,46.4,63.5,43.4,63.5z"/>
	</g>
</g>
<g>
	<g>
		<g>
			<g>
				<path fill="#DB7324" d="M71.7,44.9c-18.8-13.5-45-9.2-58.5,9.6C-0.3,73.3,4,99.5,22.8,113s45,9.2,58.5-9.6
					C94.8,84.6,90.5,58.4,71.7,44.9z M68.5,49.4c16.3,11.7,20,34.5,8.3,50.8s-34.5,20-50.8,8.3S6,74,17.7,57.7S52.2,37.7,68.5,49.4z
					"/>
			</g>
		</g>
		<g>
			<circle fill="#F5912F" cx="47.2" cy="78.9" r="36.4"/>
		</g>
	</g>
	<g>
		<path fill="#FFFFFF" d="M58.1,77.2c4.2,1,6.8,3.5,6.3,9.1c-0.7,7-5.8,8.8-13.2,9.2v7.3h-4.4v-7.2c-1.1,0-2.3,0-3.5,0v7.2h-4.4
			v-7.3c-1,0-2.1,0-3.1,0H30l0.9-5.2c3.2,0.1,3.2,0,3.2,0c1.2,0,1.6-0.9,1.7-1.5V77.2c0.1,0,0.3,0,0.5,0c-0.2,0-0.3,0-0.5,0V69
			C35.6,68,35,67,33.2,67c0,0,0.1-0.1-3.2,0v-4.7l6.1,0c0.9,0,1.8,0,2.8,0v-7.2h4.4v7.1c1.2,0,2.3-0.1,3.5-0.1v-7h4.4v7.2
			c5.7,0.5,10.2,2.2,10.7,7.5C62.2,73.6,60.6,75.9,58.1,77.2z M43.4,67.3v8.8c2.5,0,10.3,0.6,10.3-4.4
			C53.7,66.6,45.9,67.3,43.4,67.3z M43.4,80.5v9.7c3,0,12.3,0.6,12.3-4.8C55.7,79.7,46.4,80.5,43.4,80.5z"/>
	</g>
</g>
<g>
	<g>
		<g>
			<g>
				<path fill="#9B9B9B" d="M336.3,59.8c7.6-21.9-3.9-45.8-25.8-53.4s-45.8,3.9-53.4,25.8c-7.6,21.9,3.9,45.8,25.8,53.4
					S328.7,81.6,336.3,59.8z M262.3,33.9c6.6-19,27.4-29,46.4-22.4c19,6.6,29,27.4,22.4,46.4c-6.6,19-27.4,29-46.4,22.4
					C265.7,73.7,255.7,52.9,262.3,33.9z"/>
			</g>
		</g>
		<g>
			<circle fill="#B5B5B5" cx="296.7" cy="45.9" r="36.4"/>
		</g>
	</g>
	<polygon fill="#FFFFFF" points="292.6,25 302,25 294.8,59 315,59 313.4,66.9 283.8,66.9 	"/>
	<polygon fill="#FFFFFF" points="282.8,51.9 281.6,58.4 308.9,39.7 310.5,33 	"/>
</g>
<g>
	<g>
		<g>
			<g>
				<path fill="#9B9B9B" d="M336.3,75.8c7.6-21.9-3.9-45.8-25.8-53.4c-21.9-7.6-45.8,3.9-53.4,25.8c-7.6,21.9,3.9,45.8,25.8,53.4
					S328.7,97.6,336.3,75.8z M262.3,49.9c6.6-19,27.4-29,46.4-22.4c19,6.6,29,27.4,22.4,46.4c-6.6,19-27.4,29-46.4,22.4
					C265.7,89.7,255.7,68.9,262.3,49.9z"/>
			</g>
		</g>
		<g>
			<circle fill="#B5B5B5" cx="296.7" cy="61.9" r="36.4"/>
		</g>
	</g>
	<polygon fill="#FFFFFF" points="292.6,41 302,41 294.8,75 315,75 313.4,82.9 283.8,82.9 	"/>
	<polygon fill="#FFFFFF" points="282.8,67.9 281.6,74.4 308.9,55.7 310.5,49 	"/>
</g>
<g>
	<g>
		<g>
			<g>
				<path fill="#9B9B9B" d="M336.3,92.8c7.6-21.9-3.9-45.8-25.8-53.4c-21.9-7.6-45.8,3.9-53.4,25.8c-7.6,21.9,3.9,45.8,25.8,53.4
					S328.7,114.6,336.3,92.8z M262.3,66.9c6.6-19,27.4-29,46.4-22.4c19,6.6,29,27.4,22.4,46.4c-6.6,19-27.4,29-46.4,22.4
					C265.7,106.7,255.7,85.9,262.3,66.9z"/>
			</g>
		</g>
		<g>
			<circle fill="#B5B5B5" cx="296.7" cy="78.9" r="36.4"/>
		</g>
	</g>
	<polygon fill="#FFFFFF" points="292.6,58 302,58 294.8,92 315,92 313.4,99.9 283.8,99.9 	"/>
	<polygon fill="#FFFFFF" points="282.8,84.9 281.6,91.4 308.9,72.7 310.5,66 	"/>
</g>
<g>
	<g>
		<g>
			<g>
				<path fill="#B5A464" d="M136.9,21.5c-13.5,18.8-9.2,45,9.6,58.5s45,9.2,58.5-9.6c13.5-18.8,9.2-45-9.6-58.5
					S150.4,2.7,136.9,21.5z M200.5,67.2c-11.7,16.3-34.5,20-50.8,8.3s-20-34.5-8.3-50.8c11.7-16.3,34.5-20,50.8-8.3
					S212.2,50.9,200.5,67.2z"/>
			</g>
		</g>
		<g>
			<circle fill="#D8C175" cx="170.9" cy="45.9" r="36.4"/>
		</g>
	</g>
	<path fill="#FFFFFF" stroke="#FFFFFF" stroke-width="4" stroke-miterlimit="10" d="M152,64.2v-6h5.4V34.6H152v-6h16.8
		c3.5,0,6.4,0.2,8.6,0.7c2.2,0.4,4.2,1.4,6.2,2.9c2,1.5,3.6,3.5,4.8,6c1.2,2.5,1.8,5.3,1.8,8.3c0,2.5-0.4,4.8-1.3,7.1
		s-1.9,4-3.1,5.4c-1.2,1.4-2.7,2.5-4.4,3.3c-1.7,0.8-3.3,1.3-4.7,1.6c-1.4,0.2-3.7,0.4-6.7,0.4H152z M166.6,58.1h2.2
		c2.7,0,4.8-0.3,6.4-1c1.6-0.7,2.8-1.9,3.8-3.7c1-1.8,1.4-4.1,1.4-6.9c0-2.7-0.5-5-1.4-6.9c-1-1.9-2.3-3.2-3.9-3.9
		c-1.6-0.7-3.7-1.1-6.3-1.1h-2.2V58.1z"/>
</g>
<g>
	<g>
		<g>
			<g>
				<path fill="#B5A464" d="M136.9,37.5c-13.5,18.8-9.2,45,9.6,58.5s45,9.2,58.5-9.6c13.5-18.8,9.2-45-9.6-58.5
					S150.4,18.7,136.9,37.5z M200.5,83.2c-11.7,16.3-34.5,20-50.8,8.3s-20-34.5-8.3-50.8c11.7-16.3,34.5-20,50.8-8.3
					S212.2,66.9,200.5,83.2z"/>
			</g>
		</g>
		<g>
			<circle fill="#D8C175" cx="170.9" cy="61.9" r="36.4"/>
		</g>
	</g>
	<path fill="#FFFFFF" stroke="#FFFFFF" stroke-width="4" stroke-miterlimit="10" d="M152,80.2v-6h5.4V50.6H152v-6h16.8
		c3.5,0,6.4,0.2,8.6,0.7c2.2,0.4,4.2,1.4,6.2,2.9c2,1.5,3.6,3.5,4.8,6c1.2,2.5,1.8,5.3,1.8,8.3c0,2.5-0.4,4.8-1.3,7.1
		s-1.9,4-3.1,5.4c-1.2,1.4-2.7,2.5-4.4,3.3c-1.7,0.8-3.3,1.3-4.7,1.6c-1.4,0.2-3.7,0.4-6.7,0.4H152z M166.6,74.1h2.2
		c2.7,0,4.8-0.3,6.4-1c1.6-0.7,2.8-1.9,3.8-3.7c1-1.8,1.4-4.1,1.4-6.9c0-2.7-0.5-5-1.4-6.9c-1-1.9-2.3-3.2-3.9-3.9
		c-1.6-0.7-3.7-1.1-6.3-1.1h-2.2V74.1z"/>
</g>
<g>
	<g>
		<g>
			<g>
				<path fill="#B5A464" d="M136.9,54.5c-13.5,18.8-9.2,45,9.6,58.5s45,9.2,58.5-9.6c13.5-18.8,9.2-45-9.6-58.5
					S150.4,35.7,136.9,54.5z M200.5,100.2c-11.7,16.3-34.5,20-50.8,8.3s-20-34.5-8.3-50.8s34.5-20,50.8-8.3S212.2,83.9,200.5,100.2z
					"/>
			</g>
		</g>
		<g>
			<circle fill="#D8C175" cx="170.9" cy="78.9" r="36.4"/>
		</g>
	</g>
	<path fill="#FFFFFF" stroke="#FFFFFF" stroke-width="4" stroke-miterlimit="10" d="M152,97.2v-6h5.4V67.6H152v-6h16.8
		c3.5,0,6.4,0.2,8.6,0.7c2.2,0.4,4.2,1.4,6.2,2.9c2,1.5,3.6,3.5,4.8,6c1.2,2.5,1.8,5.3,1.8,8.3c0,2.5-0.4,4.8-1.3,7.1
		s-1.9,4-3.1,5.4c-1.2,1.4-2.7,2.5-4.4,3.3c-1.7,0.8-3.3,1.3-4.7,1.6c-1.4,0.2-3.7,0.4-6.7,0.4H152z M166.6,91.1h2.2
		c2.7,0,4.8-0.3,6.4-1c1.6-0.7,2.8-1.9,3.8-3.7c1-1.8,1.4-4.1,1.4-6.9c0-2.7-0.5-5-1.4-6.9c-1-1.9-2.3-3.2-3.9-3.9
		c-1.6-0.7-3.7-1.1-6.3-1.1h-2.2V91.1z"/>
</g>
</svg>
