<?xml version="1.0" encoding="utf-8"?>
<!-- Generator: Adobe Illustrator 18.1.1, SVG Export Plug-In . SVG Version: 6.00 Build 0)  -->
<svg version="1.1" id="Layer_1" xmlns="http://www.w3.org/2000/svg" xmlns:xlink="http://www.w3.org/1999/xlink" x="0px" y="0px"
	 viewBox="41 0 431 512" enable-background="new 41 0 431 512" xml:space="preserve">
<rect x="456.9" y="243.5" fill="#EEEEEE" width="0.8" height="5.1"/>
<rect x="460" y="450" fill="#EEEEEE" width="0.8" height="5.1"/>
<rect x="456.9" y="39.1" fill="#EEEEEE" width="0.8" height="5.1"/>
<rect x="454.4" y="158" fill="#EEEEEE" width="4.2" height="5.1"/>
<rect x="159.5" y="40.8" fill="#EEEEEE" width="147.5" height="5.1"/>
<rect x="53.5" y="40.8" fill="#EEEEEE" width="78" height="5.1"/>
<rect x="336" y="40.8" fill="#EEEEEE" width="121.4" height="5.1"/>
<rect x="275" y="65.8" fill="#EEEEEE" width="61" height="5.1"/>
<rect x="72.3" y="65.8" fill="#EEEEEE" width="116.7" height="5.1"/>
<rect x="215" y="65.8" fill="#EEEEEE" width="42.6" height="5.1"/>
<rect x="377" y="65.8" fill="#EEEEEE" width="56.5" height="5.1"/>
<rect x="333.5" y="40.7" fill="#EEEEEE" width="5.1" height="30.1"/>
<rect x="374.5" y="40.7" fill="#EEEEEE" width="5.1" height="30.1"/>
<rect x="355.5" y="63.2" fill="#EEEEEE" width="5.1" height="30.1"/>
<rect x="275" y="40.7" fill="#EEEEEE" width="5.1" height="30.1"/>
<rect x="252.5" y="65.8" fill="#EEEEEE" width="5.1" height="30.1"/>
<rect x="255" y="115.8" fill="#EEEEEE" width="5.1" height="30.1"/>
<rect x="217.5" y="90.8" fill="#EEEEEE" width="5.1" height="30.1"/>
<rect x="284.6" y="220.3" fill="#EEEEEE" width="5.1" height="73"/>
<rect x="308.5" y="440.7" fill="#EEEEEE" width="5.1" height="29.4"/>
<rect x="236.2" y="440.8" fill="#EEEEEE" width="5.1" height="52.6"/>
<rect x="96.3" y="340.8" fill="#EEEEEE" width="5.1" height="55.1"/>
<rect x="72.5" y="340.8" fill="#EEEEEE" width="5.1" height="55.1"/>
<rect x="362.5" y="365.7" fill="#EEEEEE" width="5.1" height="30.1"/>
<rect x="387.6" y="345.8" fill="#EEEEEE" width="5.1" height="24.4"/>
<rect x="425.8" y="393.3" fill="#EEEEEE" width="5.1" height="30.1"/>
<rect x="268.1" y="415.8" fill="#EEEEEE" width="5.1" height="30.1"/>
<rect x="121.1" y="440.8" fill="#EEEEEE" width="5.1" height="30.1"/>
<rect x="74.5" y="440.8" fill="#EEEEEE" width="5.1" height="30.1"/>
<rect x="96.4" y="418.3" fill="#EEEEEE" width="5.1" height="52.5"/>
<rect x="220.1" y="240.7" fill="#EEEEEE" width="5.1" height="52.5"/>
<rect x="220.1" y="192.7" fill="#EEEEEE" width="5.1" height="27.6"/>
<rect x="185.4" y="265.5" fill="#EEEEEE" width="5.1" height="27.8"/>
<rect x="169.4" y="190.8" fill="#EEEEEE" width="5.1" height="30.1"/>
<rect x="119.7" y="265.7" fill="#EEEEEE" width="5.1" height="30.1"/>
<rect x="152.6" y="290.8" fill="#EEEEEE" width="5.1" height="30.1"/>
<rect x="74.5" y="192.8" fill="#EEEEEE" width="5.1" height="73"/>
<rect x="368.5" y="165.7" fill="#EEEEEE" width="5.1" height="55.1"/>
<rect x="340" y="240.7" fill="#EEEEEE" width="5.1" height="29.8"/>
<rect x="425.9" y="190.8" fill="#EEEEEE" width="5.1" height="55.3"/>
<rect x="397" y="165.8" fill="#EEEEEE" width="5.1" height="80.1"/>
<rect x="328.1" y="115.8" fill="#EEEEEE" width="5.1" height="78.9"/>
<rect x="102.7" y="165.7" fill="#EEEEEE" width="5.1" height="28.9"/>
<rect x="139" y="141.9" fill="#EEEEEE" width="5.1" height="28.9"/>
<rect x="163.5" y="65.8" fill="#EEEEEE" width="5.1" height="30.1"/>
<rect x="252.5" y="90.8" fill="#EEEEEE" width="202.2" height="5.1"/>
<rect x="51.6" y="90.8" fill="#EEEEEE" width="34.9" height="5.1"/>
<rect x="83.5" y="90.8" fill="#EEEEEE" width="82.5" height="5.1"/>
<rect x="189" y="90.8" fill="#EEEEEE" width="47.3" height="5.1"/>
<rect x="254.9" y="115.8" fill="#EEEEEE" width="156.6" height="5.1"/>
<rect x="53.5" y="115.8" fill="#EEEEEE" width="68.7" height="5.1"/>
<rect x="146.2" y="115.8" fill="#EEEEEE" width="75.8" height="5.1"/>
<rect x="77" y="140.8" fill="#EEEEEE" width="150.5" height="5.1"/>
<rect x="288.9" y="140.8" fill="#EEEEEE" width="44.3" height="5.1"/>
<rect x="360.5" y="140.8" fill="#EEEEEE" width="95.9" height="5.1"/>
<rect x="77" y="165.8" fill="#EEEEEE" width="228.5" height="5.1"/>
<rect x="397" y="165.8" fill="#EEEEEE" width="34" height="5.1"/>
<rect x="353.6" y="165.8" fill="#EEEEEE" width="20" height="5.1"/>
<rect x="397" y="190.7" fill="#EEEEEE" width="30" height="5.1"/>
<rect x="55.2" y="190.8" fill="#EEEEEE" width="24.4" height="5.1"/>
<rect x="102.7" y="190.8" fill="#EEEEEE" width="71.8" height="5.1"/>
<rect x="197" y="190.8" fill="#EEEEEE" width="49.2" height="5.1"/>
<rect x="280" y="190.8" fill="#EEEEEE" width="92.3" height="5.1"/>
<rect x="197" y="215.8" fill="#EEEEEE" width="205.1" height="5.1"/>
<rect x="77" y="215.8" fill="#EEEEEE" width="97.5" height="5.1"/>
<rect x="289.6" y="240.8" fill="#EEEEEE" width="55.5" height="5.1"/>
<rect x="368.8" y="240.8" fill="#EEEEEE" width="32.2" height="5.1"/>
<rect x="150.7" y="240.8" fill="#EEEEEE" width="74.5" height="5.1"/>
<rect x="79.5" y="240.8" fill="#EEEEEE" width="45.2" height="5.1"/>
<rect x="74.5" y="265.8" fill="#EEEEEE" width="47.8" height="5.1"/>
<rect x="144.1" y="265.8" fill="#EEEEEE" width="46.4" height="5.1"/>
<rect x="312.3" y="265.8" fill="#EEEEEE" width="67.3" height="5.1"/>
<rect x="412" y="265.8" fill="#EEEEEE" width="47" height="5.1"/>
<rect x="220.1" y="290.8" fill="#EEEEEE" width="234.6" height="5.1"/>
<rect x="74.5" y="290.8" fill="#EEEEEE" width="116" height="5.1"/>
<rect x="55.2" y="315.8" fill="#EEEEEE" width="67.1" height="5.1"/>
<rect x="152.6" y="315.8" fill="#EEEEEE" width="160.6" height="5.1"/>
<rect x="360.5" y="315.8" fill="#EEEEEE" width="95.7" height="5.1"/>
<rect x="96.3" y="340.8" fill="#EEEEEE" width="73.6" height="5.1"/>
<rect x="196.3" y="340.8" fill="#EEEEEE" width="96.4" height="5.1"/>
<rect x="338.7" y="340.8" fill="#EEEEEE" width="54" height="5.1"/>
<rect x="421.9" y="340.8" fill="#EEEEEE" width="32.8" height="5.1"/>
<rect x="119.7" y="365.8" fill="#EEEEEE" width="100.4" height="5.1"/>
<rect x="244.5" y="365.8" fill="#EEEEEE" width="88.7" height="5.1"/>
<rect x="362.5" y="365.8" fill="#EEEEEE" width="94.8" height="5.1"/>
<rect x="273.2" y="390.8" fill="#EEEEEE" width="157.7" height="5.1"/>
<rect x="55.2" y="390.8" fill="#EEEEEE" width="191.9" height="5.1"/>
<rect x="55.2" y="415.8" fill="#EEEEEE" width="155.8" height="5.1"/>
<rect x="241.3" y="415.8" fill="#EEEEEE" width="155.8" height="5.1"/>
<rect x="121.1" y="440.8" fill="#EEEEEE" width="192.5" height="5.1"/>
<rect x="159.5" y="465.8" fill="#EEEEEE" width="81.8" height="5.1"/>
<rect x="75.4" y="465.8" fill="#EEEEEE" width="26" height="5.1"/>
<rect x="338.7" y="440.8" fill="#EEEEEE" width="119.2" height="5.1"/>
<rect x="270.7" y="465.8" fill="#EEEEEE" width="157.7" height="5.1"/>
<rect x="242" y="343.3" fill="#EEEEEE" width="5.1" height="52.5"/>
<rect x="194.5" y="340.7" fill="#EEEEEE" width="5.1" height="28.8"/>
<g>
	<polygon fill="#EEEEEE" points="60.5,20.8 454.7,20.8 454.7,20.8 454.7,465.8 459.4,465.8 459.4,16.1 459.3,16.1 50.7,16.1 
		50.7,20.8 55.3,20.8 	"/>
	<polygon fill="#EEEEEE" points="454.7,490.9 428.3,490.9 55.3,490.9 55.3,40.7 50.7,40.7 50.7,495.5 459.4,495.5 459.4,490.9 	"/>
</g>
<path fill="#BAAA67" d="M244.5,262.2l-8.2,17.4c-0.6,1.3,1.1,4.5,1.1,4.5s2.4-0.5,3.6-1.4l2.8-0.2l-0.9-2.5l2.2-0.2l-1.1-2.8
	l0.2-0.3l2.5-0.2l-1.1-2.8l2.2-4.6l2.2,1l2.5-5.3c3.7-0.3,7.2-2.5,8.9-6.2c2.5-5.4,0.2-11.8-5.2-14.3c-5.4-2.5-11.8-0.2-14.3,5.2
	C239.7,254,240.9,259.1,244.5,262.2z M254.7,247.3c1.6,0.8,2.3,2.7,1.5,4.3c-0.8,1.6-2.7,2.3-4.3,1.5c-1.6-0.8-2.3-2.7-1.5-4.3
	S253.1,246.6,254.7,247.3z"/>
<path fill="#D7C674" d="M245.5,260.2l-8.2,17.4c-0.6,1.3,1.1,4.5,1.1,4.5s2.4-0.5,3.6-1.4l2.8-0.2l-0.9-2.5l2.2-0.2l-1.1-2.8
	l0.2-0.3l2.5-0.2l-1.1-2.8l2.2-4.6l2.2,1l2.5-5.3c3.7-0.3,7.2-2.5,8.9-6.2c2.5-5.4,0.2-11.8-5.2-14.3c-5.4-2.5-11.8-0.2-14.3,5.2
	C240.7,252,241.9,257.1,245.5,260.2z M255.7,245.3c1.6,0.8,2.3,2.7,1.5,4.3c-0.8,1.6-2.7,2.3-4.3,1.5c-1.6-0.8-2.3-2.7-1.5-4.3
	S254.1,244.6,255.7,245.3z"/>
<path fill="#BAAA67" d="M251.7,266l1,19.2c0.1,1.4,3.1,3.4,3.1,3.4s1.9-1.6,2.5-2.9l2.4-1.5l-2-1.8l1.9-1.2l-2.3-2l0-0.4l2.1-1.3
	l-2.3-2l-0.3-5.1l2.4-0.1l-0.3-5.8c3.1-2,5.1-5.6,4.9-9.6c-0.3-5.9-5.4-10.5-11.3-10.2c-5.9,0.3-10.5,5.4-10.2,11.3
	C243.6,261,247.1,265,251.7,266z M253.7,248.1c1.8-0.1,3.3,1.3,3.4,3.1c0.1,1.8-1.3,3.3-3.1,3.4c-1.8,0.1-3.3-1.3-3.4-3.1
	C250.5,249.7,251.9,248.1,253.7,248.1z"/>
<path fill="#D7C674" d="M252.7,263l1,19.2c0.1,1.4,3.1,3.4,3.1,3.4s1.9-1.6,2.5-2.9l2.4-1.5l-2-1.8l1.9-1.2l-2.3-2l0-0.4l2.1-1.3
	l-2.3-2l-0.3-5.1l2.4-0.1l-0.3-5.8c3.1-2,5.1-5.6,4.9-9.6c-0.3-5.9-5.4-10.5-11.3-10.2c-5.9,0.3-10.5,5.4-10.2,11.3
	C244.6,258,248.1,262,252.7,263z M254.7,245.1c1.8-0.1,3.3,1.3,3.4,3.1c0.1,1.8-1.3,3.3-3.1,3.4c-1.8,0.1-3.3-1.3-3.4-3.1
	C251.5,246.7,252.9,245.1,254.7,245.1z"/>
<path fill="#BAAA67" d="M257.4,264.8l8.5,17.3c0.6,1.3,4.2,1.9,4.2,1.9s1.1-2.2,1.2-3.7l1.6-2.3l-2.6-0.8l1.3-1.8l-2.9-0.9l-0.2-0.3
	l1.4-2l-2.9-0.9l-2.3-4.6l2.2-1.1l-2.6-5.3c2.1-3.1,2.5-7.2,0.7-10.8c-2.6-5.3-9.1-7.5-14.4-4.9c-5.3,2.6-7.5,9.1-4.9,14.4
	C248,263.4,252.8,265.7,257.4,264.8z M252.2,247.5c1.6-0.8,3.5-0.1,4.3,1.5c0.8,1.6,0.1,3.5-1.5,4.3c-1.6,0.8-3.5,0.1-4.3-1.5
	C249.9,250.2,250.6,248.3,252.2,247.5z"/>
<path fill="#D7C674" d="M258.4,262.8l8.5,17.3c0.6,1.3,4.2,1.9,4.2,1.9s1.1-2.2,1.2-3.7l1.6-2.3l-2.6-0.8l1.3-1.8l-2.9-0.9l-0.2-0.3
	l1.4-2l-2.9-0.9l-2.3-4.6l2.2-1.1l-2.6-5.3c2.1-3.1,2.5-7.2,0.7-10.8c-2.6-5.3-9.1-7.5-14.4-4.9c-5.3,2.6-7.5,9.1-4.9,14.4
	C249,261.4,253.8,263.7,258.4,262.8z M253.2,245.5c1.6-0.8,3.5-0.1,4.3,1.5c0.8,1.6,0.1,3.5-1.5,4.3c-1.6,0.8-3.5,0.1-4.3-1.5
	C250.9,248.2,251.6,246.3,253.2,245.5z"/>
<g>
	<path fill="none" d="M254.8,241.6c1.2-0.2,2.3-0.2,3.5,0c0.3-1.3,0.6-2.9,0.6-4.6c0-6.3-2.8-10.3-4.8-10.3s-4.8,4-4.8,10.3
		c0,1.7,0.2,3.3,0.6,4.6C251.5,241.3,253.2,241.2,254.8,241.6z"/>
	<path fill="none" d="M251.6,249.7c0,0,0,0.1,0,0.1c0.2,0.4,0.5,0.8,0.8,1c0.2,0.1,0.3,0.2,0.5,0.3c1.6,0.8,3.5,0.1,4.3-1.5
		c0.1-0.2,0.2-0.4,0.2-0.6c-1,0.9-2.2,1.4-3.4,1.4C253.2,250.4,252.4,250.1,251.6,249.7z"/>
	<path fill="none" d="M256.4,245.8C256.4,245.8,256.4,245.8,256.4,245.8c-0.9-0.7-2.2-0.8-3.3-0.3c-0.4,0.2-0.7,0.5-1,0.8
		c0.7,0.7,1.3,1.1,1.9,1.1C254.8,247.4,255.7,246.8,256.4,245.8z"/>
	<path fill="#D7C674" d="M253.2,245.5c1.1-0.5,2.3-0.4,3.3,0.3c0,0,0,0,0,0c0.7-1,1.4-2.4,1.9-4.2c-1.1-0.2-2.3-0.2-3.5,0
		c-1.7-0.4-3.4-0.3-5,0.1c0.5,2.1,1.4,3.6,2.3,4.6C252.4,246,252.8,245.7,253.2,245.5z"/>
	<path fill="#AAAAAA" d="M249.3,237c0-6.3,2.8-10.3,4.8-10.3s4.8,4,4.8,10.3c0,1.7-0.2,3.2-0.6,4.6c1,0.2,2,0.5,2.9,0.9
		c0.4-1.7,0.7-3.5,0.7-5.5c0-7.4-3.5-13.3-7.8-13.3s-7.8,6-7.8,13.3c0,2.1,0.3,4,0.8,5.8c0.9-0.5,1.8-0.9,2.8-1.1
		C249.5,240.3,249.3,238.8,249.3,237z"/>
	<path fill="#AAAAAA" d="M256.4,245.8c-0.8,1-1.6,1.6-2.4,1.6c-0.6,0-1.3-0.4-1.9-1.1c-0.8,0.9-1,2.2-0.5,3.4
		c0.8,0.4,1.6,0.7,2.4,0.7c1.2,0,2.4-0.5,3.4-1.4C257.8,247.8,257.4,246.6,256.4,245.8z"/>
	<path fill="#AAAAAA" d="M256.4,245.8c0.9,0.8,1.3,2,1,3.2c1.6-1.4,2.9-3.7,3.7-6.5c-0.9-0.4-1.9-0.8-2.9-0.9
		C257.9,243.4,257.2,244.8,256.4,245.8z"/>
</g>
</svg>
