<?xml version="1.0" encoding="utf-8"?>
<!-- Generator: Adobe Illustrator 18.1.1, SVG Export Plug-In . SVG Version: 6.00 Build 0)  -->
<svg version="1.1" id="Layer_1" xmlns="http://www.w3.org/2000/svg" xmlns:xlink="http://www.w3.org/1999/xlink" x="0px" y="0px"
	 viewBox="0 0 171 256" enable-background="new 0 0 171 256" xml:space="preserve">
<g>
	<path fill="#D1D1D1" d="M44.4,113.5V74.6C44.4,52,63,33.5,85.6,33.5s41.2,18.5,41.2,41.2v39.1H154V72.6C154,35,123.2,4.1,85.6,4.1
		l0,0C48,4.1,17.2,35,17.2,72.6v40.9H44.4z"/>
	<path fill="#B7B7B7" d="M165.9,243.9c0,3.6-4.1,6.4-9,6.4H14.1c-4.9,0-9-2.8-9-6.4V117.6c0-3.6,4.1-6.4,9-6.4h143.1
		c4.9,0,9,2.8,9,6.4v126.3H165.9z"/>
</g>
</svg>
