<?xml version="1.0" encoding="utf-8"?>
<!-- Generator: Adobe Illustrator 18.1.1, SVG Export Plug-In . SVG Version: 6.00 Build 0)  -->
<svg version="1.1" xmlns="http://www.w3.org/2000/svg" xmlns:xlink="http://www.w3.org/1999/xlink" x="0px" y="0px"
	 viewBox="0 0 512 512" enable-background="new 0 0 512 512" xml:space="preserve">
<g id="Layer_1" display="none">
	
		<rect x="51.2" y="199.2" display="inline" fill="#FFFFFF" stroke="#231F20" stroke-width="0.7982" stroke-miterlimit="10" width="409.5" height="289.8"/>
	<polygon display="inline" fill="#231F20" points="256,348 256,348 51.2,199.2 460.8,199.2 	"/>
	<polygon display="inline" fill="#FFFFFF" stroke="#231F20" stroke-width="0.7982" stroke-miterlimit="10" points="256,50.5 
		256,50.5 51.2,199.2 460.8,199.2 	"/>
</g>
<g id="Layer_1_copy">
	<g>
		<polygon fill="#D8E9EF" points="256,50.5 51.2,199.2 51.2,489 460.8,489 460.8,199.2 		"/>
	</g>
	<polygon fill-opacity="0.1" points="256,348 256,348 51.2,199.2 460.8,199.2 	"/>
	<path fill="#BAAA67" d="M363.2,218.7L364,92.8c0.7-9.5-22.9-22.1-22.9-22.1s-1.5-0.1-7,8.4l-13.4,17.1l8.5,4.7l-13.6,6.5l13.8,15.4
		l-0.2,2.6l-6.7,8.9l5.2,13.7l-2.4,34.9l-4.8,26.9l-14.5,11.9C283,233,266.6,255.8,264.7,283c-2.8,40.6,27.9,75.8,68.5,78.5
		c40.6,2.8,75.8-27.9,78.5-68.5C414,259.5,393.4,229.6,363.2,218.7z M334.7,339.2c-12.1-0.8-21.3-11.3-20.5-23.5
		c0.8-12.1,11.3-21.3,23.5-20.5c12.1,0.8,21.3,11.3,20.5,23.5C357.4,330.8,346.9,340,334.7,339.2z"/>
	<path fill="#D7C674" d="M353.1,224.1l8.1-131.3c0.6-9.5-18.6-25.8-18.6-25.8s-14,9.2-19.5,17.8L306,93l12.3,13.6l-13.6,6.6
		l13.9,15.3l-0.2,2.6l-15.3,7.4l13.9,15.3l-2.2,34.9l-16.6-1l-2.5,39.9c-22.8,11.3-39.1,34.2-40.8,61.5c-2.5,40.6,28.4,75.6,69,78.1
		c40.6,2.5,75.6-28.4,78.1-69C404.2,264.5,383.4,234.7,353.1,224.1z M325.5,344.7c-12.1-0.7-21.4-11.2-20.6-23.3
		c0.7-12.1,11.2-21.4,23.3-20.6c12.1,0.7,21.4,11.2,20.6,23.3C348.1,336.2,337.6,345.5,325.5,344.7z"/>
	<path fill="#BAAA67" d="M307.8,217l-56.3-112.6c-3.7-8.8-30.4-9.3-30.4-9.3s-1.4,0.5-2.4,10.7l-4.2,21.3l9.7,0.4l-9.2,11.9
		l19.2,7.5l1,2.4l-1.9,11l10.8,9.9l13.7,32.2l7.9,26.2l-7.5,17.2c-15.3,20.3-19.7,48.1-9,73.2c15.9,37.5,59.2,54.9,96.6,39
		c37.5-15.9,54.9-59.2,39-96.6C371.6,230.3,339.6,213,307.8,217z M337,337.3c-11.2,4.8-24.1-0.5-28.9-11.7
		c-4.8-11.2,0.5-24.1,11.7-28.9c11.2-4.8,24.1,0.5,28.9,11.7C353.4,319.6,348.2,332.5,337,337.3z"/>
	<path fill="#D7C674" d="M300.3,224.3l-54.6-119.7c-4-8.7-28.6-14.1-28.6-14.1s-8,14.7-8.8,24.9l-11.2,15.4l17.3,6.2l-8.9,12.2
		l19.4,7l1.1,2.3l-10,13.7l19.4,7L250,211l-15.1,6.9l16.6,36.4c-14.8,20.7-18.4,48.6-7.1,73.4c16.9,37,60.6,53.3,97.6,36.4
		c37-16.9,53.3-60.6,36.4-97.6C364.5,235.8,332.1,219.4,300.3,224.3z M332.7,343.7c-11.1,5.1-24.1,0.2-29.2-10.9
		c-5.1-11.1-0.2-24.1,10.9-29.2c11.1-5.1,24.1-0.2,29.2,10.9C348.6,325.6,343.8,338.6,332.7,343.7z"/>
	<path fill="#BAAA67" d="M262.3,241.5l-98.2-78.7c-7.1-6.4-31.5,4.2-31.5,4.2s-1,1.1,2.2,10.7l5.1,21.1l9-3.7l-3.4,14.7l20.6-1.2
		l1.9,1.7l2.9,10.8l14,4.5l25.9,23.5l18.1,20.5l0.3,18.7c-5.4,24.9,2.2,51.9,22.4,70.3c30.1,27.4,76.7,25.1,104.1-5
		c27.4-30.1,25.1-76.7-5-104.1C325.8,226.8,289.6,224.5,262.3,241.5z M339.2,338.5c-8.2,9-22.1,9.7-31.1,1.5
		c-9-8.2-9.7-22.1-1.5-31.1c8.2-9,22.1-9.7,31.1-1.5C346.7,315.5,347.3,329.5,339.2,338.5z"/>
	<path fill="#D7C674" d="M261,256.7l-97.4-88.5c-7.1-6.4-31.8-1.7-31.8-1.7s-1.6,16.7,1.7,26.3l-4.3,18.5l18.3-1.1l-3.4,14.7
		l20.6-1.2l1.9,1.7l-3.8,16.5l20.6-1.2l25.9,23.5l-11.2,12.3l29.6,26.9c-5.4,24.9,2.2,51.9,22.4,70.3c30.1,27.4,76.7,25.1,104.1-5
		c27.4-30.1,25.1-76.7-5-104.1C324.5,242.1,288.3,239.7,261,256.7z M337.8,353.7c-8.2,9-22.1,9.7-31.1,1.5c-9-8.2-9.7-22.1-1.5-31.1
		c8.2-9,22.1-9.7,31.1-1.5C345.4,330.8,346,344.7,337.8,353.7z"/>
	<g>
		<g>
			<polygon fill="#D8E9EF" points="256,348 51.2,199.2 51.2,489 460.8,489 460.8,199.2 			"/>
		</g>
	</g>
</g>
</svg>
