<?xml version="1.0" encoding="utf-8"?>
<!-- Generator: Adobe Illustrator 18.1.1, SVG Export Plug-In . SVG Version: 6.00 Build 0)  -->
<svg version="1.1" id="Layer_1" xmlns="http://www.w3.org/2000/svg" xmlns:xlink="http://www.w3.org/1999/xlink" x="0px" y="0px"
	 viewBox="0 0 380 381" enable-background="new 0 0 380 381" xml:space="preserve">
<g>
	<path fill="#CCCCCC" d="M354.6,365.5H25.4c-5.7,0-10.4-4.7-10.4-10.4V25.9c0-5.7,4.7-10.4,10.4-10.4h329.2
		c5.7,0,10.4,4.7,10.4,10.4v329.2C365,360.8,360.3,365.5,354.6,365.5z"/>
	<circle fill="#BBBBBB" cx="190" cy="190.5" r="150"/>
	<circle fill="#DDDDDD" cx="190" cy="190.5" r="125"/>
	<circle fill="#CCCCCC" cx="190" cy="190.5" r="100"/>
	<g>
		<path fill="#DDDDDD" d="M256.6,257.9L256.6,257.9c-1,1-2.6,1-3.5,0L123.4,128.1c-1-1-1-2.6,0-3.5l0,0c1-1,2.6-1,3.5,0l129.8,129.8
			C257.6,255.3,257.6,256.9,256.6,257.9z"/>
		<path fill="#DDDDDD" d="M190,285.5L190,285.5c-1.4,0-2.5-1.1-2.5-2.5V99.5c0-1.4,1.1-2.5,2.5-2.5l0,0c1.4,0,2.5,1.1,2.5,2.5V283
			C192.5,284.4,191.4,285.5,190,285.5z"/>
		<path fill="#DDDDDD" d="M123.4,257.9L123.4,257.9c-1-1-1-2.6,0-3.5l129.8-129.8c1-1,2.6-1,3.5,0l0,0c1,1,1,2.6,0,3.5L126.9,257.9
			C125.9,258.9,124.3,258.9,123.4,257.9z"/>
		<path fill="#DDDDDD" d="M95.8,191.2L95.8,191.2c0-1.4,1.1-2.5,2.5-2.5h183.5c1.4,0,2.5,1.1,2.5,2.5l0,0c0,1.4-1.1,2.5-2.5,2.5
			H98.2C96.9,193.8,95.8,192.6,95.8,191.2z"/>
	</g>
	<g>
		<path fill="#BBBBBB" d="M190,130.5c33.1,0,60,26.9,60,60s-26.9,60-60,60s-60-26.9-60-60S156.9,130.5,190,130.5 M190,115.5
			c-41.4,0-75,33.6-75,75s33.6,75,75,75s75-33.6,75-75S231.4,115.5,190,115.5L190,115.5z"/>
	</g>
	<g>
		<path fill="#999999" d="M196.3,237.6h-12.7c-2.8,0-5-2.2-5-5v-82.7c0-2.8,2.2-5,5-5h12.7c2.8,0,5,2.2,5,5v82.7
			C201.3,235.3,199.1,237.6,196.3,237.6z"/>
		<path fill="#999999" d="M161.7,228.5l-9-9c-1.9-1.9-1.9-5.1,0-7.1l58.5-58.5c1.9-1.9,5.1-1.9,7.1,0l9,9c1.9,1.9,1.9,5.1,0,7.1
			l-58.5,58.5C166.8,230.4,163.7,230.4,161.7,228.5z"/>
		<path fill="#999999" d="M143.7,197.6v-12.7c0-2.8,2.2-5,5-5h82.7c2.8,0,5,2.2,5,5v12.7c0,2.8-2.2,5-5,5h-82.7
			C145.9,202.6,143.7,200.3,143.7,197.6z"/>
		<path fill="#999999" d="M152.8,163l9-9c1.9-1.9,5.1-1.9,7.1,0l58.5,58.5c1.9,1.9,1.9,5.1,0,7.1l-9,9c-1.9,1.9-5.1,1.9-7.1,0
			L152.8,170C150.8,168.1,150.8,164.9,152.8,163z"/>
		<circle fill="#999999" cx="190" cy="191.2" r="35.5"/>
		<circle fill="#AAAAAA" cx="190" cy="191.2" r="25"/>
		<circle fill="#BBBBBB" cx="190" cy="191.2" r="15"/>
	</g>
	<path fill="#999999" d="M338.6,265.5h-12.5c-3.9,0-7.1-3.2-7.1-7.1V122.6c0-3.9,3.2-7.1,7.1-7.1h12.5c3.9,0,7.1,3.2,7.1,7.1v135.9
		C345.7,262.3,342.5,265.5,338.6,265.5z"/>
</g>
</svg>
